<svg width="24" height="24" viewBox="0 0 24 24" fill="none" xmlns="http://www.w3.org/2000/svg">
<path d="M9 17C9 16.4477 9.44772 16 10 16C10.5523 16 11 16.4477 11 17C11 17.5523 10.5523 18 10 18C9.44772 18 9 17.5523 9 17Z" fill="white"/>
<path d="M15 17C15 16.4477 15.4477 16 16 16C16.5523 16 17 16.4477 17 17C17 17.5523 16.5523 18 16 18C15.4477 18 15 17.5523 15 17Z" fill="white"/>
<path d="M5.24988 6.75H6.40076C6.61053 6.75 6.79799 6.88093 6.8702 7.07788L9.01901 12.9385C9.30785 13.7263 10.0577 14.25 10.8968 14.25H15.3085C16.1693 14.25 16.9336 13.6991 17.2058 12.8825L18.5306 8.90811C18.6385 8.58435 18.3976 8.25 18.0563 8.25H10.4999" stroke="white" stroke-width="1.5" stroke-linecap="round" stroke-linejoin="round"/>
</svg>
